<svg width="43" height="78" viewBox="0 0 43 78" fill="none" xmlns="http://www.w3.org/2000/svg">
<path d="M1.22056 54.1018L1.10856 54.228L1.22126 54.3536L21.3594 76.7942L21.5001 76.951L21.6408 76.7942L41.7789 54.3536L41.8919 54.2276L41.7793 54.1014L37.9157 49.772L37.7749 49.6143L37.6338 49.7717L29.8048 58.5074L29.8048 0.999999L29.8048 0.810918L29.6158 0.810918L24.1118 0.810918L23.9227 0.810918L23.9227 0.999999L23.9227 65.0708L21.5 67.7741L19.0775 65.0746L19.0775 0.999999L19.0775 0.810917L18.8884 0.810917L13.3844 0.810917L13.1953 0.810917L13.1953 0.999999L13.1953 58.5199L5.3447 49.7716L5.20319 49.6139L5.06256 49.7724L1.22056 54.1018Z" fill="#F28705" stroke="#F24405" stroke-width="0.378163"/>
</svg>
