<svg width="71" height="71" viewBox="0 0 71 71" fill="none" xmlns="http://www.w3.org/2000/svg">
<path d="M32.6138 1.66634C34.3998 0.635204 36.6002 0.635204 38.3862 1.66634L63.3577 16.0837C65.1437 17.1148 66.2439 19.0204 66.2439 21.0827V49.9173C66.2439 51.9796 65.1437 53.8852 63.3577 54.9163L38.3862 69.3337C36.6002 70.3648 34.3998 70.3648 32.6138 69.3337L7.64228 54.9163C5.8563 53.8852 4.7561 51.9796 4.7561 49.9173V21.0827C4.7561 19.0204 5.8563 17.1148 7.64228 16.0837L32.6138 1.66634Z" fill="white"/>
<path d="M23.8799 23.1945H35.1377L33.9338 27.6195H28.8255L29.216 32.2073H32.7625L31.5261 36.7624H29.6064L30.0619 42.489L28.9231 46.7188L25.8321 45.9054L23.8799 23.1945Z" fill="#111111"/>
<path d="M46.2329 23.1945H37.3503L36.2115 27.6521H41.2873L40.9294 32.2073H35.0076L33.8037 36.7625H40.5064L39.9532 42.4239L35.0727 43.758L32.1769 42.9771L31.0381 47.337L35.0727 48.4433L44.2481 45.9379L46.2329 23.1945Z" fill="#111111"/>
</svg>
