<svg width="54" height="130" viewBox="0 0 54 130" fill="none" xmlns="http://www.w3.org/2000/svg">
<path d="M18.5902 65.8085C31.1311 67.2067 37.918 73.4617 37.918 84.132V99.2175C37.918 109.667 41.459 113.567 50.7541 113.567H54V129.168H48.541C26.7049 129.168 17.4098 120.779 17.4098 101.352V89.8718C17.4098 79.0544 12.6148 74.9335 0 74.8599V54.4024C12.541 54.3288 17.4098 50.2078 17.4098 39.3904V27.6163C17.4098 8.40978 26.6311 0.167908 48.541 0.167908H54V15.7686H50.7541C41.3852 15.7686 37.918 19.7423 37.918 30.1183V45.1303C37.918 55.727 31.1311 62.0555 18.5902 63.4537V65.8085Z" fill="#F24405"/>
</svg>
