<svg width="54" height="131" viewBox="0 0 54 131" fill="none" xmlns="http://www.w3.org/2000/svg">
<path d="M35.4098 64.5185C22.8689 63.1095 16.082 56.806 16.082 46.053L16.082 30.8505C16.082 20.32 12.541 16.3896 3.24591 16.3896L-1.45356e-06 16.3896L-7.91308e-08 0.667964L5.45902 0.667965C27.2951 0.667966 36.5902 9.12204 36.5902 28.6999L36.5902 40.2687C36.5902 51.17 41.3853 55.3228 54 55.397L54 76.0131C41.459 76.0872 36.5902 80.2401 36.5902 91.1414L36.5902 103.007C36.5902 122.362 27.3689 130.668 5.45901 130.668L-1.14441e-05 130.668L-1.00697e-05 114.946L3.2459 114.946C12.6148 114.946 16.082 110.942 16.082 100.485L16.082 85.3571C16.082 74.6782 22.8689 68.3006 35.4098 66.8916L35.4098 64.5185Z" fill="#F24405"/>
</svg>
