<svg width="71" height="71" viewBox="0 0 71 71" fill="none" xmlns="http://www.w3.org/2000/svg">
<path d="M32.6138 1.66634C34.3998 0.635204 36.6002 0.635204 38.3862 1.66634L63.3577 16.0837C65.1437 17.1148 66.2439 19.0204 66.2439 21.0827V49.9173C66.2439 51.9796 65.1437 53.8852 63.3577 54.9163L38.3862 69.3337C36.6002 70.3648 34.3998 70.3648 32.6138 69.3337L7.64228 54.9163C5.8563 53.8852 4.7561 51.9796 4.7561 49.9173V21.0827C4.7561 19.0204 5.8563 17.1148 7.64228 16.0837L32.6138 1.66634Z" fill="#F24405"/>
<mask id="path-2-outside-1_197_796" maskUnits="userSpaceOnUse" x="22.5122" y="24.8189" width="25" height="22" fill="black">
<rect fill="white" x="22.5122" y="24.8189" width="25" height="22"/>
<path d="M27.8778 26.4718V37.953C27.8778 40.3052 29.2636 41.8437 31.7303 41.8437C34.1842 41.8437 35.5701 40.3052 35.5701 37.953V26.4718H39.4099V38.3345C39.4099 42.3777 36.4219 45.1368 31.7303 45.1368C27.0259 45.1368 24.038 42.3777 24.038 38.3345V26.4718H27.8778ZM46.3139 44.8189H42.4741V26.4718H46.3139V44.8189Z"/>
</mask>
<path d="M27.8778 26.4718V37.953C27.8778 40.3052 29.2636 41.8437 31.7303 41.8437C34.1842 41.8437 35.5701 40.3052 35.5701 37.953V26.4718H39.4099V38.3345C39.4099 42.3777 36.4219 45.1368 31.7303 45.1368C27.0259 45.1368 24.038 42.3777 24.038 38.3345V26.4718H27.8778ZM46.3139 44.8189H42.4741V26.4718H46.3139V44.8189Z" fill="#111111"/>
<path d="M27.8778 26.4718H28.5798V25.7697H27.8778V26.4718ZM35.5701 26.4718V25.7697H34.868V26.4718H35.5701ZM39.4099 26.4718H40.1119V25.7697H39.4099V26.4718ZM24.038 26.4718V25.7697H23.3359V26.4718H24.038ZM27.1757 26.4718V37.953H28.5798V26.4718H27.1757ZM27.1757 37.953C27.1757 39.2654 27.5643 40.4289 28.3738 41.2679C29.1871 42.1108 30.3477 42.5457 31.7303 42.5457V41.1417C30.6462 41.1417 29.8806 40.8074 29.3842 40.293C28.8842 39.7747 28.5798 38.9929 28.5798 37.953H27.1757ZM31.7303 42.5457C33.1075 42.5457 34.2649 42.1102 35.0762 41.2673C35.8836 40.4285 36.2721 39.2653 36.2721 37.953H34.868C34.868 38.993 34.5636 39.7752 34.0646 40.2936C33.5695 40.808 32.807 41.1417 31.7303 41.1417V42.5457ZM36.2721 37.953V26.4718H34.868V37.953H36.2721ZM35.5701 27.1738H39.4099V25.7697H35.5701V27.1738ZM38.7078 26.4718V38.3345H40.1119V26.4718H38.7078ZM38.7078 38.3345C38.7078 40.1735 38.0336 41.678 36.8609 42.7291C35.6815 43.7862 33.9404 44.4347 31.7303 44.4347V45.8388C34.2118 45.8388 36.3106 45.1078 37.798 43.7746C39.2922 42.4354 40.1119 40.5387 40.1119 38.3345H38.7078ZM31.7303 44.4347C29.5134 44.4347 27.7691 43.7859 26.5882 42.7288C25.4142 41.6778 24.74 40.1735 24.74 38.3345H23.3359C23.3359 40.5387 24.1557 42.4356 25.6517 43.7749C27.1409 45.1081 29.2428 45.8388 31.7303 45.8388V44.4347ZM24.74 38.3345V26.4718H23.3359V38.3345H24.74ZM24.038 27.1738H27.8778V25.7697H24.038V27.1738ZM46.3139 44.8189V45.521H47.0159V44.8189H46.3139ZM42.4741 44.8189H41.772V45.521H42.4741V44.8189ZM42.4741 26.4718V25.7697H41.772V26.4718H42.4741ZM46.3139 26.4718H47.0159V25.7697H46.3139V26.4718ZM46.3139 44.1169H42.4741V45.521H46.3139V44.1169ZM43.1761 44.8189V26.4718H41.772V44.8189H43.1761ZM42.4741 27.1738H46.3139V25.7697H42.4741V27.1738ZM45.6118 26.4718V44.8189H47.0159V26.4718H45.6118Z" fill="#111111" mask="url(#path-2-outside-1_197_796)"/>
</svg>
