<svg width="71" height="71" viewBox="0 0 71 71" fill="none" xmlns="http://www.w3.org/2000/svg">
<path d="M32.6138 1.66634C34.3998 0.635204 36.6002 0.635204 38.3862 1.66634L63.3577 16.0837C65.1437 17.1148 66.2439 19.0204 66.2439 21.0827V49.9173C66.2439 51.9796 65.1437 53.8852 63.3577 54.9163L38.3862 69.3337C36.6002 70.3648 34.3998 70.3648 32.6138 69.3337L7.64228 54.9163C5.8563 53.8852 4.7561 51.9796 4.7561 49.9173V21.0827C4.7561 19.0204 5.8563 17.1148 7.64228 16.0837L32.6138 1.66634Z" fill="#F24405"/>
<mask id="path-2-outside-1_197_780" maskUnits="userSpaceOnUse" x="19.626" y="26.5878" width="33" height="18" fill="black">
<rect fill="white" x="19.626" y="26.5878" width="33" height="18"/>
<path d="M24.377 27.342V37.5083C24.377 39.5911 25.6042 40.9534 27.7883 40.9534C29.9612 40.9534 31.1883 39.5911 31.1883 37.5083V27.342H34.5883V37.8461C34.5883 41.4262 31.9426 43.8693 27.7883 43.8693C23.6227 43.8693 20.977 41.4262 20.977 37.8461V27.342H24.377ZM36.4347 43.5878L41.5911 35.448V35.358L36.4685 27.342H40.4652L43.9103 33.1964H44.0003L47.4792 27.342H51.2732L45.9593 35.4255V35.5043L51.2057 43.5878H47.3328L43.7752 37.9024H43.6851L40.1049 43.5878H36.4347Z"/>
</mask>
<path d="M24.377 27.342V37.5083C24.377 39.5911 25.6042 40.9534 27.7883 40.9534C29.9612 40.9534 31.1883 39.5911 31.1883 37.5083V27.342H34.5883V37.8461C34.5883 41.4262 31.9426 43.8693 27.7883 43.8693C23.6227 43.8693 20.977 41.4262 20.977 37.8461V27.342H24.377ZM36.4347 43.5878L41.5911 35.448V35.358L36.4685 27.342H40.4652L43.9103 33.1964H44.0003L47.4792 27.342H51.2732L45.9593 35.4255V35.5043L51.2057 43.5878H47.3328L43.7752 37.9024H43.6851L40.1049 43.5878H36.4347Z" fill="#111111"/>
<path d="M24.377 27.342H24.9986V26.7204H24.377V27.342ZM31.1883 27.342V26.7204H30.5667V27.342H31.1883ZM34.5883 27.342H35.21V26.7204H34.5883V27.342ZM20.977 27.342V26.7204H20.3553V27.342H20.977ZM23.7554 27.342V37.5083H24.9986V27.342H23.7554ZM23.7554 37.5083C23.7554 38.6703 24.0994 39.7006 24.8163 40.4435C25.5364 41.1899 26.5641 41.575 27.7883 41.575V40.3317C26.8284 40.3317 26.1504 40.0357 25.711 39.5803C25.2682 39.1214 24.9986 38.4291 24.9986 37.5083H23.7554ZM27.7883 41.575C29.0078 41.575 30.0326 41.1893 30.751 40.443C31.4659 39.7002 31.81 38.6703 31.81 37.5083H30.5667C30.5667 38.4291 30.2971 39.1217 29.8553 39.5808C29.4168 40.0363 28.7417 40.3317 27.7883 40.3317V41.575ZM31.81 37.5083V27.342H30.5667V37.5083H31.81ZM31.1883 27.9636H34.5883V26.7204H31.1883V27.9636ZM33.9667 27.342V37.8461H35.21V27.342H33.9667ZM33.9667 37.8461C33.9667 39.4745 33.3697 40.8066 32.3313 41.7373C31.287 42.6734 29.7453 43.2477 27.7883 43.2477V44.4909C29.9857 44.4909 31.844 43.8437 33.1611 42.6631C34.4842 41.4773 35.21 39.7978 35.21 37.8461H33.9667ZM27.7883 43.2477C25.8253 43.2477 24.2808 42.6731 23.2352 41.7371C22.1956 40.8064 21.5986 39.4745 21.5986 37.8461H20.3553C20.3553 39.7978 21.0812 41.4775 22.4059 42.6634C23.7246 43.8439 25.5857 44.4909 27.7883 44.4909V43.2477ZM21.5986 37.8461V27.342H20.3553V37.8461H21.5986ZM20.977 27.9636H24.377V26.7204H20.977V27.9636ZM36.4347 43.5878L35.9096 43.2552L35.3051 44.2095H36.4347V43.5878ZM41.5911 35.448L42.1162 35.7807L42.2127 35.6284V35.448H41.5911ZM41.5911 35.358H42.2127V35.1763L42.1149 35.0232L41.5911 35.358ZM36.4685 27.342V26.7204H35.3335L35.9447 27.6767L36.4685 27.342ZM40.4652 27.342L41.001 27.0267L40.8207 26.7204H40.4652V27.342ZM43.9103 33.1964L43.3745 33.5116L43.5548 33.818H43.9103V33.1964ZM44.0003 33.1964V33.818H44.3541L44.5347 33.5139L44.0003 33.1964ZM47.4792 27.342V26.7204H47.1255L46.9448 27.0244L47.4792 27.342ZM51.2732 27.342L51.7927 27.6835L52.4258 26.7204H51.2732V27.342ZM45.9593 35.4255L45.4398 35.084L45.3377 35.2395V35.4255H45.9593ZM45.9593 35.5043H45.3377V35.6884L45.4379 35.8427L45.9593 35.5043ZM51.2057 43.5878V44.2095H52.3502L51.7271 43.2494L51.2057 43.5878ZM47.3328 43.5878L46.8058 43.9176L46.9885 44.2095H47.3328V43.5878ZM43.7752 37.9024L44.3021 37.5726L44.1195 37.2807H43.7752V37.9024ZM43.6851 37.9024V37.2807H43.3419L43.1591 37.5711L43.6851 37.9024ZM40.1049 43.5878V44.2095H40.4481L40.631 43.9191L40.1049 43.5878ZM36.9599 43.9205L42.1162 35.7807L41.0659 35.1154L35.9096 43.2552L36.9599 43.9205ZM42.2127 35.448V35.358H40.9694V35.448H42.2127ZM42.1149 35.0232L36.9923 27.0073L35.9447 27.6767L41.0672 35.6927L42.1149 35.0232ZM36.4685 27.9636H40.4652V26.7204H36.4685V27.9636ZM39.9295 27.6573L43.3745 33.5116L44.446 32.8811L41.001 27.0267L39.9295 27.6573ZM43.9103 33.818H44.0003V32.5747H43.9103V33.818ZM44.5347 33.5139L48.0136 27.6596L46.9448 27.0244L43.4659 32.8788L44.5347 33.5139ZM47.4792 27.9636H51.2732V26.7204H47.4792V27.9636ZM50.7538 27.0005L45.4398 35.084L46.4787 35.767L51.7927 27.6835L50.7538 27.0005ZM45.3377 35.4255V35.5043H46.5809V35.4255H45.3377ZM45.4379 35.8427L50.6843 43.9263L51.7271 43.2494L46.4807 35.1659L45.4379 35.8427ZM51.2057 42.9662H47.3328V44.2095H51.2057V42.9662ZM47.8598 43.2581L44.3021 37.5726L43.2482 38.2321L46.8058 43.9176L47.8598 43.2581ZM43.7752 37.2807H43.6851V38.524H43.7752V37.2807ZM43.1591 37.5711L39.5789 43.2566L40.631 43.9191L44.2111 38.2336L43.1591 37.5711ZM40.1049 42.9662H36.4347V44.2095H40.1049V42.9662Z" fill="#111111" mask="url(#path-2-outside-1_197_780)"/>
</svg>
