<svg width="287" height="405" viewBox="0 0 287 405" fill="none" xmlns="http://www.w3.org/2000/svg">
<g clip-path="url(#clip0_253_209)">
<path d="M24 404.4L131.532 404.508C137.897 404.508 144.002 401.979 148.503 397.479C153.003 392.978 155.532 386.873 155.532 380.508V367.308C155.532 360.943 158.061 354.838 162.561 350.337C167.062 345.837 173.167 343.308 179.532 343.308H262.332C268.697 343.308 274.802 340.779 279.303 336.279C283.803 331.778 286.332 325.673 286.332 319.308V133.308C286.332 126.943 283.803 120.838 279.303 116.337C274.802 111.837 268.697 109.308 262.332 109.308H192.732C186.367 109.308 180.262 111.837 175.761 116.337C171.261 120.838 168.732 126.943 168.732 133.308V206.508C168.732 224.676 154.512 236.508 138.732 236.508L24 236.4C17.6348 236.4 11.5303 238.929 7.02944 243.429C2.52856 247.93 0 254.035 0 260.4L0 380.4C0 386.765 2.52856 392.87 7.02944 397.371C11.5303 401.871 17.6348 404.4 24 404.4Z" fill="#F24405"/>
<path d="M259.932 0.107986H190.332C177.077 0.107986 166.332 10.8532 166.332 24.108V74.508C166.332 87.7628 177.077 98.508 190.332 98.508H259.932C273.187 98.508 283.932 87.7628 283.932 74.508V24.108C283.932 10.8532 273.187 0.107986 259.932 0.107986Z" fill="#F24405"/>
<path d="M271.932 354.108H178.332C171.705 354.108 166.332 359.481 166.332 366.108V392.508C166.332 399.135 171.705 404.508 178.332 404.508H271.932C278.559 404.508 283.932 399.135 283.932 392.508V366.108C283.932 359.481 278.559 354.108 271.932 354.108Z" fill="#F24405"/>
<path d="M135.132 225.732L20.4 225.6C14.9896 225.6 9.80076 223.451 5.97502 219.625C2.14928 215.799 0 210.61 0 205.2L0 20.4C0 14.9896 2.14928 9.80076 5.97502 5.97502C9.80076 2.14928 14.9896 0 20.4 0L135.132 0.108C137.811 0.108 140.464 0.635662 142.939 1.66086C145.414 2.68605 147.663 4.18871 149.557 6.08302C151.451 7.97734 152.954 10.2262 153.979 12.7013C155.004 15.1763 155.532 17.829 155.532 20.508V205.308C155.535 207.989 155.01 210.644 153.986 213.122C152.962 215.6 151.46 217.852 149.565 219.748C147.671 221.645 145.421 223.15 142.944 224.177C140.468 225.204 137.813 225.732 135.132 225.732Z" fill="#F24405"/>
</g>
<defs>
<clipPath id="clip0_253_209">
<rect width="286.332" height="404.508" fill="white"/>
</clipPath>
</defs>
</svg>
